<mxfile host="65bd71144e">
    <diagram id="J0Kw3ywMFj4X3cCYN1kJ" name="Kebutuhan Mesin">
        <mxGraphModel dx="553" dy="649" grid="1" gridSize="10" guides="1" tooltips="1" connect="1" arrows="1" fold="1" page="1" pageScale="1" pageWidth="827" pageHeight="1169" math="0" shadow="0">
            <root>
                <mxCell id="0"/>
                <mxCell id="1" parent="0"/>
                <mxCell id="11" value="" style="rounded=1;whiteSpace=wrap;html=1;strokeWidth=4;fontSize=16;fontStyle=1;arcSize=8;fillColor=#fff2cc;strokeColor=#d6b656;" vertex="1" parent="1">
                    <mxGeometry x="1150" y="440" width="1430" height="150" as="geometry"/>
                </mxCell>
                <mxCell id="2" value="" style="rounded=1;whiteSpace=wrap;html=1;strokeWidth=4;fontSize=16;fontStyle=1;arcSize=8;fillColor=#d5e8d4;strokeColor=#82b366;" vertex="1" parent="1">
                    <mxGeometry x="1150" y="221" width="1430" height="191" as="geometry"/>
                </mxCell>
                <mxCell id="388vwY8Y4XDALHpI7bIc-41" value="Kertas" style="rounded=1;whiteSpace=wrap;html=1;strokeWidth=4;fontSize=16;fontStyle=1;fillColor=#6d8764;strokeColor=#3A5431;fontColor=#ffffff;" parent="1" vertex="1">
                    <mxGeometry x="2220" y="270" width="140" height="40" as="geometry"/>
                </mxCell>
                <mxCell id="388vwY8Y4XDALHpI7bIc-54" style="edgeStyle=none;html=1;entryX=0.5;entryY=0;entryDx=0;entryDy=0;strokeWidth=4;strokeColor=light-dark(#3a5431, #ededed);exitX=0.237;exitY=0.979;exitDx=0;exitDy=0;exitPerimeter=0;" parent="1" source="388vwY8Y4XDALHpI7bIc-42" target="388vwY8Y4XDALHpI7bIc-52" edge="1">
                    <mxGeometry relative="1" as="geometry"/>
                </mxCell>
                <mxCell id="388vwY8Y4XDALHpI7bIc-42" value="Organik" style="rounded=1;whiteSpace=wrap;html=1;strokeWidth=4;fontSize=16;fontStyle=1;fillColor=#6d8764;strokeColor=#3A5431;fontColor=#ffffff;" parent="1" vertex="1">
                    <mxGeometry x="1317" y="270" width="350" height="40" as="geometry"/>
                </mxCell>
                <mxCell id="388vwY8Y4XDALHpI7bIc-48" style="edgeStyle=none;html=1;entryX=0.5;entryY=0;entryDx=0;entryDy=0;strokeWidth=4;fillColor=#d5e8d4;strokeColor=light-dark(#3a5431, #ededed);" parent="1" source="388vwY8Y4XDALHpI7bIc-44" target="388vwY8Y4XDALHpI7bIc-46" edge="1">
                    <mxGeometry relative="1" as="geometry"/>
                </mxCell>
                <mxCell id="388vwY8Y4XDALHpI7bIc-49" style="edgeStyle=orthogonalEdgeStyle;html=1;entryX=0.5;entryY=0;entryDx=0;entryDy=0;strokeWidth=4;fillColor=#d5e8d4;strokeColor=light-dark(#3a5431, #ededed);" parent="1" source="388vwY8Y4XDALHpI7bIc-44" target="388vwY8Y4XDALHpI7bIc-45" edge="1">
                    <mxGeometry relative="1" as="geometry"/>
                </mxCell>
                <mxCell id="388vwY8Y4XDALHpI7bIc-50" style="edgeStyle=orthogonalEdgeStyle;html=1;entryX=0.5;entryY=0;entryDx=0;entryDy=0;strokeWidth=4;fillColor=#d5e8d4;strokeColor=light-dark(#3a5431, #ededed);" parent="1" source="388vwY8Y4XDALHpI7bIc-44" target="388vwY8Y4XDALHpI7bIc-47" edge="1">
                    <mxGeometry relative="1" as="geometry"/>
                </mxCell>
                <mxCell id="388vwY8Y4XDALHpI7bIc-44" value="Botol" style="rounded=1;whiteSpace=wrap;html=1;strokeWidth=4;fontSize=16;fontStyle=1;fillColor=#6d8764;strokeColor=#3A5431;fontColor=#ffffff;" parent="1" vertex="1">
                    <mxGeometry x="1850" y="250" width="140" height="40" as="geometry"/>
                </mxCell>
                <mxCell id="388vwY8Y4XDALHpI7bIc-45" value="Botol Plastik" style="rounded=1;whiteSpace=wrap;html=1;strokeWidth=4;fontSize=16;fontStyle=1;fillColor=#6d8764;strokeColor=#3A5431;fontColor=#ffffff;" parent="1" vertex="1">
                    <mxGeometry x="1670" y="345" width="140" height="40" as="geometry"/>
                </mxCell>
                <mxCell id="388vwY8Y4XDALHpI7bIc-46" value="Tutup Botol" style="rounded=1;whiteSpace=wrap;html=1;strokeWidth=4;fontSize=16;fontStyle=1;fillColor=#6d8764;strokeColor=#3A5431;fontColor=#ffffff;" parent="1" vertex="1">
                    <mxGeometry x="1850" y="345" width="140" height="40" as="geometry"/>
                </mxCell>
                <mxCell id="388vwY8Y4XDALHpI7bIc-47" value="Botol Kaleng" style="rounded=1;whiteSpace=wrap;html=1;strokeWidth=4;fontSize=16;fontStyle=1;fillColor=#6d8764;strokeColor=#3A5431;fontColor=#ffffff;" parent="1" vertex="1">
                    <mxGeometry x="2030" y="345" width="140" height="40" as="geometry"/>
                </mxCell>
                <mxCell id="388vwY8Y4XDALHpI7bIc-60" style="edgeStyle=none;html=1;entryX=0.5;entryY=0;entryDx=0;entryDy=0;strokeWidth=4;strokeColor=light-dark(#3a5431, #ededed);" parent="1" source="388vwY8Y4XDALHpI7bIc-51" target="388vwY8Y4XDALHpI7bIc-58" edge="1">
                    <mxGeometry relative="1" as="geometry"/>
                </mxCell>
                <mxCell id="388vwY8Y4XDALHpI7bIc-51" value="Plastik" style="rounded=1;whiteSpace=wrap;html=1;strokeWidth=4;fontSize=16;fontStyle=1;fillColor=#6d8764;strokeColor=#3A5431;fontColor=#ffffff;" parent="1" vertex="1">
                    <mxGeometry x="2400" y="270" width="140" height="40" as="geometry"/>
                </mxCell>
                <mxCell id="388vwY8Y4XDALHpI7bIc-52" value="Mesin Pencacah Organik Kasar" style="rounded=1;whiteSpace=wrap;html=1;strokeWidth=4;fontSize=16;fontStyle=1;fillColor=#f0a30a;fontColor=light-dark(#FFFFFF,#EDEDED);strokeColor=#BD7000;" parent="1" vertex="1">
                    <mxGeometry x="1320" y="485" width="160" height="60" as="geometry"/>
                </mxCell>
                <mxCell id="388vwY8Y4XDALHpI7bIc-53" value="Mesin Pencacah Halus" style="rounded=1;whiteSpace=wrap;html=1;strokeWidth=4;fontSize=16;fontStyle=1;fillColor=#f0a30a;fontColor=light-dark(#FFFFFF,#EDEDED);strokeColor=#BD7000;" parent="1" vertex="1">
                    <mxGeometry x="1691" y="485" width="290" height="60" as="geometry"/>
                </mxCell>
                <mxCell id="388vwY8Y4XDALHpI7bIc-58" value="Mesin Pelumer" style="rounded=1;whiteSpace=wrap;html=1;strokeWidth=4;fontSize=16;fontStyle=1;fillColor=#f0a30a;fontColor=light-dark(#FFFFFF,#EDEDED);strokeColor=#BD7000;" parent="1" vertex="1">
                    <mxGeometry x="2390" y="485" width="160" height="60" as="geometry"/>
                </mxCell>
                <mxCell id="x1IxJDcAxro6MHsoyiwN-1" value="Mesin Press" style="rounded=1;whiteSpace=wrap;html=1;strokeWidth=4;fontSize=16;fontStyle=1;fillColor=#f0a30a;fontColor=light-dark(#FFFFFF,#EDEDED);strokeColor=#BD7000;" parent="1" vertex="1">
                    <mxGeometry x="2020" y="485" width="160" height="60" as="geometry"/>
                </mxCell>
                <mxCell id="3" value="Mesin Pencacah Organik Halus" style="rounded=1;whiteSpace=wrap;html=1;strokeWidth=4;fontSize=16;fontStyle=1;fillColor=#f0a30a;fontColor=light-dark(#FFFFFF,#EDEDED);strokeColor=#BD7000;" vertex="1" parent="1">
                    <mxGeometry x="1507" y="485" width="160" height="60" as="geometry"/>
                </mxCell>
                <mxCell id="4" style="edgeStyle=none;html=1;entryX=0.5;entryY=0;entryDx=0;entryDy=0;strokeWidth=4;strokeColor=light-dark(#3a5431, #ededed);exitX=0.774;exitY=1.031;exitDx=0;exitDy=0;exitPerimeter=0;" edge="1" parent="1" source="388vwY8Y4XDALHpI7bIc-42" target="3">
                    <mxGeometry relative="1" as="geometry">
                        <mxPoint x="1590" y="291" as="sourcePoint"/>
                        <mxPoint x="1533" y="535" as="targetPoint"/>
                    </mxGeometry>
                </mxCell>
                <mxCell id="5" style="edgeStyle=none;html=1;entryX=0.17;entryY=-0.04;entryDx=0;entryDy=0;strokeWidth=4;strokeColor=light-dark(#3a5431, #ededed);exitX=0.5;exitY=1;exitDx=0;exitDy=0;entryPerimeter=0;" edge="1" parent="1" source="388vwY8Y4XDALHpI7bIc-45" target="388vwY8Y4XDALHpI7bIc-53">
                    <mxGeometry relative="1" as="geometry">
                        <mxPoint x="1595" y="300" as="sourcePoint"/>
                        <mxPoint x="1597" y="639" as="targetPoint"/>
                    </mxGeometry>
                </mxCell>
                <mxCell id="6" style="edgeStyle=none;html=1;entryX=0.79;entryY=-0.025;entryDx=0;entryDy=0;strokeWidth=4;strokeColor=light-dark(#3a5431, #ededed);exitX=0.5;exitY=1;exitDx=0;exitDy=0;entryPerimeter=0;" edge="1" parent="1" source="388vwY8Y4XDALHpI7bIc-46" target="388vwY8Y4XDALHpI7bIc-53">
                    <mxGeometry relative="1" as="geometry">
                        <mxPoint x="1750" y="395" as="sourcePoint"/>
                        <mxPoint x="1800" y="535" as="targetPoint"/>
                    </mxGeometry>
                </mxCell>
                <mxCell id="7" style="edgeStyle=none;html=1;entryX=0.5;entryY=0;entryDx=0;entryDy=0;strokeWidth=4;strokeColor=light-dark(#3a5431, #ededed);exitX=0.5;exitY=1;exitDx=0;exitDy=0;" edge="1" parent="1" source="388vwY8Y4XDALHpI7bIc-47" target="x1IxJDcAxro6MHsoyiwN-1">
                    <mxGeometry relative="1" as="geometry">
                        <mxPoint x="1930" y="395" as="sourcePoint"/>
                        <mxPoint x="1930" y="534" as="targetPoint"/>
                    </mxGeometry>
                </mxCell>
                <mxCell id="8" value="Mesin Pencacah Kertas" style="rounded=1;whiteSpace=wrap;html=1;strokeWidth=4;fontSize=16;fontStyle=1;fillColor=#f0a30a;fontColor=light-dark(#FFFFFF,#EDEDED);strokeColor=#BD7000;" vertex="1" parent="1">
                    <mxGeometry x="2210" y="485" width="160" height="60" as="geometry"/>
                </mxCell>
                <mxCell id="10" style="edgeStyle=none;html=1;entryX=0.5;entryY=0;entryDx=0;entryDy=0;strokeWidth=4;strokeColor=light-dark(#3a5431, #ededed);exitX=0.5;exitY=1;exitDx=0;exitDy=0;" edge="1" parent="1" source="388vwY8Y4XDALHpI7bIc-41" target="8">
                    <mxGeometry relative="1" as="geometry">
                        <mxPoint x="2110" y="395" as="sourcePoint"/>
                        <mxPoint x="2110" y="535" as="targetPoint"/>
                    </mxGeometry>
                </mxCell>
                <mxCell id="12" value="" style="rounded=1;whiteSpace=wrap;html=1;strokeWidth=4;fontSize=16;fontStyle=1;arcSize=8;fillColor=#e1d5e7;strokeColor=#9673a6;" vertex="1" parent="1">
                    <mxGeometry x="1150" y="620" width="1430" height="150" as="geometry"/>
                </mxCell>
                <mxCell id="13" value="Eco-enzym" style="rounded=1;whiteSpace=wrap;html=1;strokeWidth=4;fontSize=16;fontStyle=1;fillColor=#76608a;fontColor=#ffffff;strokeColor=#432D57;" vertex="1" parent="1">
                    <mxGeometry x="1320" y="665" width="160" height="60" as="geometry"/>
                </mxCell>
                <mxCell id="14" value="Kompos" style="rounded=1;whiteSpace=wrap;html=1;strokeWidth=4;fontSize=16;fontStyle=1;fillColor=#76608a;fontColor=#ffffff;strokeColor=#432D57;" vertex="1" parent="1">
                    <mxGeometry x="1507" y="665" width="160" height="60" as="geometry"/>
                </mxCell>
                <mxCell id="15" value="Kertas Daur Ulang" style="rounded=1;whiteSpace=wrap;html=1;strokeWidth=4;fontSize=16;fontStyle=1;fillColor=#76608a;fontColor=#ffffff;strokeColor=#432D57;" vertex="1" parent="1">
                    <mxGeometry x="2210" y="665" width="160" height="60" as="geometry"/>
                </mxCell>
                <mxCell id="16" style="edgeStyle=none;html=1;entryX=0.5;entryY=0;entryDx=0;entryDy=0;strokeWidth=4;strokeColor=light-dark(#bd7000, #ededed);exitX=0.5;exitY=1;exitDx=0;exitDy=0;" edge="1" parent="1" source="388vwY8Y4XDALHpI7bIc-52" target="13">
                    <mxGeometry relative="1" as="geometry">
                        <mxPoint x="1410" y="319" as="sourcePoint"/>
                        <mxPoint x="1410" y="495" as="targetPoint"/>
                    </mxGeometry>
                </mxCell>
                <mxCell id="17" style="edgeStyle=none;html=1;entryX=0.5;entryY=0;entryDx=0;entryDy=0;strokeWidth=4;strokeColor=light-dark(#bd7000, #ededed);exitX=0.5;exitY=1;exitDx=0;exitDy=0;" edge="1" parent="1" source="3" target="14">
                    <mxGeometry relative="1" as="geometry">
                        <mxPoint x="1410" y="555" as="sourcePoint"/>
                        <mxPoint x="1407" y="670" as="targetPoint"/>
                    </mxGeometry>
                </mxCell>
                <mxCell id="18" value="Pemilahan" style="text;html=1;align=center;verticalAlign=middle;resizable=0;points=[];autosize=1;strokeColor=none;fillColor=none;fontStyle=1;fontSize=24;fontColor=light-dark(#3a5431, #ededed);" vertex="1" parent="1">
                    <mxGeometry x="1160" y="360" width="140" height="40" as="geometry"/>
                </mxCell>
                <mxCell id="19" value="Mesin" style="text;html=1;align=center;verticalAlign=middle;resizable=0;points=[];autosize=1;strokeColor=none;fillColor=none;fontStyle=1;fontSize=24;fontColor=light-dark(#bd7000, #ededed);" vertex="1" parent="1">
                    <mxGeometry x="1160" y="540" width="90" height="40" as="geometry"/>
                </mxCell>
                <mxCell id="20" value="Paving Blok" style="rounded=1;whiteSpace=wrap;html=1;strokeWidth=4;fontSize=16;fontStyle=1;fillColor=#76608a;fontColor=#ffffff;strokeColor=#432D57;" vertex="1" parent="1">
                    <mxGeometry x="2390" y="665" width="160" height="60" as="geometry"/>
                </mxCell>
                <mxCell id="21" value="Jual" style="rounded=1;whiteSpace=wrap;html=1;strokeWidth=4;fontSize=16;fontStyle=1;fillColor=#76608a;fontColor=#ffffff;strokeColor=#432D57;" vertex="1" parent="1">
                    <mxGeometry x="2020" y="665" width="160" height="60" as="geometry"/>
                </mxCell>
                <mxCell id="22" value="Jual" style="rounded=1;whiteSpace=wrap;html=1;strokeWidth=4;fontSize=16;fontStyle=1;fillColor=#76608a;fontColor=#ffffff;strokeColor=#432D57;" vertex="1" parent="1">
                    <mxGeometry x="1756" y="665" width="160" height="60" as="geometry"/>
                </mxCell>
                <mxCell id="23" style="edgeStyle=none;html=1;entryX=0.5;entryY=0;entryDx=0;entryDy=0;strokeWidth=4;strokeColor=light-dark(#bd7000, #ededed);exitX=0.5;exitY=1;exitDx=0;exitDy=0;" edge="1" parent="1" source="388vwY8Y4XDALHpI7bIc-53" target="22">
                    <mxGeometry relative="1" as="geometry">
                        <mxPoint x="1597" y="555" as="sourcePoint"/>
                        <mxPoint x="1597" y="675" as="targetPoint"/>
                    </mxGeometry>
                </mxCell>
                <mxCell id="24" style="edgeStyle=none;html=1;entryX=0.5;entryY=0;entryDx=0;entryDy=0;strokeWidth=4;strokeColor=light-dark(#bd7000, #ededed);exitX=0.5;exitY=1;exitDx=0;exitDy=0;" edge="1" parent="1" source="x1IxJDcAxro6MHsoyiwN-1" target="21">
                    <mxGeometry relative="1" as="geometry">
                        <mxPoint x="1846" y="555" as="sourcePoint"/>
                        <mxPoint x="1846" y="675" as="targetPoint"/>
                    </mxGeometry>
                </mxCell>
                <mxCell id="25" style="edgeStyle=none;html=1;entryX=0.5;entryY=0;entryDx=0;entryDy=0;strokeWidth=4;strokeColor=light-dark(#bd7000, #ededed);exitX=0.5;exitY=1;exitDx=0;exitDy=0;" edge="1" parent="1" source="8" target="15">
                    <mxGeometry relative="1" as="geometry">
                        <mxPoint x="2110" y="555" as="sourcePoint"/>
                        <mxPoint x="2110" y="675" as="targetPoint"/>
                    </mxGeometry>
                </mxCell>
                <mxCell id="26" style="edgeStyle=none;html=1;entryX=0.5;entryY=0;entryDx=0;entryDy=0;strokeWidth=4;strokeColor=light-dark(#bd7000, #ededed);exitX=0.5;exitY=1;exitDx=0;exitDy=0;" edge="1" parent="1" source="388vwY8Y4XDALHpI7bIc-58" target="20">
                    <mxGeometry relative="1" as="geometry">
                        <mxPoint x="2300" y="555" as="sourcePoint"/>
                        <mxPoint x="2300" y="675" as="targetPoint"/>
                    </mxGeometry>
                </mxCell>
                <mxCell id="27" value="Output" style="text;html=1;align=center;verticalAlign=middle;resizable=0;points=[];autosize=1;strokeColor=none;fillColor=none;fontStyle=1;fontSize=24;fontColor=light-dark(#432d57, #ededed);" vertex="1" parent="1">
                    <mxGeometry x="1160" y="720" width="100" height="40" as="geometry"/>
                </mxCell>
                <mxCell id="28" value="SIKLUS PENGOLAHAN SAMPAH UNIVERSITAS TEKNOLOGI BANDUNG" style="rounded=1;whiteSpace=wrap;html=1;strokeWidth=4;fontSize=25;fontStyle=1;arcSize=8;fillColor=#6d8764;strokeColor=#3A5431;fontColor=#ffffff;" vertex="1" parent="1">
                    <mxGeometry x="1150" y="140" width="1430" height="61" as="geometry"/>
                </mxCell>
            </root>
        </mxGraphModel>
    </diagram>
</mxfile>